<svg width="230" height="226" viewBox="0 0 230 226" fill="none" xmlns="http://www.w3.org/2000/svg">
<circle cx="123.5" cy="107.5" r="106.5" fill="#F5F5F5"/>
<path d="M50.5518 96.4714C48.8745 104.988 48.8926 113.531 50.4335 121.7L31.4822 135.88L33.0693 139.615L36.543 147.79L38.1301 151.525L61.4914 147.725C66.3025 154.504 72.4396 160.447 79.7347 165.151L76.2646 187.934L80.1336 189.408L88.6011 192.634L92.4701 194.108L106.688 175.421C115.396 176.814 124.178 176.555 132.619 174.825L146.66 192.875L150.545 191.224L159.046 187.612L162.93 185.962L159.683 163.324C164.639 159.923 169.195 155.905 173.209 151.329C176.575 147.493 181.631 145.485 186.688 146.078L201.432 147.808L203.057 144L204.834 139.832L175.251 128.561C169.195 126.254 162.144 128.293 158.284 133.568C145.445 151.113 121.528 158.607 100.611 150.069C77.6795 140.708 66.7208 114.918 75.8994 91.9131C84.2714 70.9289 106.267 58.9136 127.809 61.8498C134.286 62.7326 140.648 59.0726 143.191 53.1115L155.611 23.9917L151.377 22.3786L147.508 20.9045L138.52 32.719C135.437 36.7707 130.481 39.0169 125.384 38.777C119.304 38.4907 113.248 38.9812 107.36 40.1883L93.318 22.138L89.4338 23.7885L80.9326 27.4008L77.0484 29.0513L80.2959 51.6889C73.1912 56.5639 66.9094 62.7065 61.868 69.9415L38.5464 67.2054L36.922 71.0137L33.367 79.3472L31.7426 83.1556L50.5518 96.4714Z" fill="#EB3300"/>
<path d="M146.022 84.48L134.449 89.3976L134.457 89.4171C132.685 90.1654 131.444 90.1338 129.917 88.9515C115.248 75.8107 94.0973 91.7047 92.5113 108.327C98.5645 107.034 104.239 103.57 110.137 101.562C112.591 107.309 115.005 112.965 117.491 118.789C111.917 120.86 106.467 123.434 100.962 125.713C98.4186 126.918 102.528 128.301 103.468 129.112C114.436 134.059 132.504 133.594 138.018 120.902C139.795 118.01 139.471 111.604 142.028 109.951C142.313 109.827 142.644 109.689 143.007 109.541L154.553 104.635C164.495 118.515 180.968 126.371 198.226 126.005L187.94 101.798C180.386 99.2343 173.989 93.7126 170.695 85.9591C167.4 78.2057 167.865 69.7687 171.263 62.551L160.977 38.3438C148.768 50.4803 142.987 67.7316 146.022 84.48Z" fill="#161921"/>
</svg>
